# AST/ASF file generated using VICON BodyLanguage
# -----------------------------------------------
:version 1.10
:name VICON
:units
  mass 1.0
  length 0.45
  angle deg
:documentation
   .ast/.asf automatically generated from VICON data using
   VICON BodyBuilder and BodyLanguage model FoxedUp or BRILLIANT.MOD
:root
   order TX TY TZ RX RY RZ
   axis XYZ
   position 0 0 0  
   orientation 0 0 0 
:bonedata
  begin
     id 1 
     name lhipjoint
     direction 0.722297 -0.617336 0.311742 
     length 2.6635 
     axis 0 0 0  XYZ
  end
  begin
     id 2 
     name lfemur
     direction 0.34202 -0.939693 0  
     length 7.39349  
     axis 0 0 20  XYZ
    dof rx ry rz
    limits (-160.0 20.0)
           (-70.0 70.0)
           (-60.0 70.0)
  end
  begin
     id 3 
     name ltibia
     direction 0.34202 -0.939693 0   
     length 7.36294   
     axis 0 0 20   XYZ
    dof rx
    limits (-10.0 170.0)
  end
  begin
     id 4 
     name lfoot
     direction 0.104879 -0.288152 0.951824   
     length 2.16981   
     axis -90 7.62852e-016 20   XYZ
    dof rx rz
    limits (-45.0 90.0)
           (-70.0 20.0)
  end
  begin
     id 5 
     name ltoes
     direction 1.53586e-011 -4.21895e-011 1   
     length 1.08218   
     axis -90 7.62852e-016 20   XYZ
    dof rx
    limits (-90.0 20.0)
  end
  begin
     id 6 
     name rhipjoint
     direction -0.75102 -0.589393 0.297631   
     length 2.78977  
     axis 0 0 0  XYZ 
  end
  begin
     id 7 
     name rfemur
     direction -0.34202 -0.939693 0   
     length 7.46076   
     axis 0 0 -20   XYZ
    dof rx ry rz
    limits (-160.0 20.0)
           (-70.0 70.0)
           (-70.0 60.0)
  end
  begin
     id 8 
     name rtibia
     direction -0.34202 -0.939693 0   
     length 7.31726   
     axis 0 0 -20   XYZ
    dof rx
    limits (-10.0 170.0)
 end
 begin
     id 9 
     name rfoot
     direction -0.107991 -0.296704 0.948844   
     length 2.09388  
     axis -90 -7.62852e-016 -20   XYZ
    dof rx rz
    limits (-45.0 90.0)
           (-20.0 70.0)
  end
  begin
     id 10 
     name rtoes
     direction -1.53559e-011 -4.21911e-011 1   
     length 1.04433   
     axis -90 -7.62852e-016 -20   XYZ
    dof rx
    limits (-90.0 20.0)
  end
  begin
     id 11 
     name lowerback
     direction 0.0165164 0.98272 0.184358   
     length 1.71896   
     axis 0 0 0   XYZ
    dof rx ry rz
    limits (-20.0 45.0)
           (-30.0 30.0)
           (-30.0 30.0)
  end
  begin
     id 12 
     name upperback
     direction -0.00887249 0.992297 0.123566   
     length 1.71504   
     axis 0 0 0   XYZ
    dof rx ry rz
    limits (-20.0 45.0)
           (-30.0 30.0)
           (-30.0 30.0)
  end
  begin
     id 13 
     name thorax
     direction -0.0157026 0.998908 0.0440032   
     length 1.77022   
     axis 0 0 0   XYZ
    dof rx ry rz
    limits (-20.0 45.0)
           (-30.0 30.0)
           (-30.0 30.0)
  end
  begin
     id 14 
     name lowerneck
     direction -0.0238856 0.998137 0.0561411   
     length 1.89341   
     axis 0 0 0   XYZ
    dof rx ry rz
    limits (-20.0 45.0)
           (-30.0 30.0)
           (-30.0 30.0)
  end
  begin
     id 15 
     name upperneck
     direction 0.0276574 0.952253 -0.304056   
     length 1.86999   
     axis 0 0 0   XYZ
    dof rx ry rz
    limits (-20.0 45.0)
           (-30.0 30.0)
           (-30.0 30.0)
  end
  begin
     id 16
     name head
     direction 0.00800083 0.994258 -0.106712  
     length 1.91492  
     axis 0 0 0   XYZ
    dof rx ry rz
    limits (-20.0 45.0)
           (-30.0 30.0)
           (-30.0 30.0)
  end
  begin
     id 17 
     name lclavicle
     direction 0.97203 0.225407 0.06595  
     length 3.34889  
     axis 0 0 0   XYZ
    dof ry rz
    limits (-20.0 10.0)
           (0.0 20.0)
  end
  begin
     id 18 
     name lhumerus
     direction 1 -4.48973e-011 2.20267e-027   
     length 4.85645   
     axis 180 -30 -90   XYZ
    dof rx ry rz
    limits (-60.0 90.0)
           (-90.0 90.0)
           (-90.0 90.0)
  end
  begin
     id 19
     name lradius
     direction 1 -4.4897e-011 4.60472e-027   
     length 2.79874   
     axis 180 -30 -90   XYZ
    dof rx
    limits (-10.0 170.0)
  end
  begin
     id 20
     name lwrist
     direction 1 -4.48952e-011 1.14928e-026   
     length 1.39937   
     axis -6.29373e-015 90 90   XYZ
    dof ry
    limits (-180.0 0.0)
 end
  begin
     id 21 
     name lhand
     direction 1 -4.48967e-011 2.29886e-026   
     length 0.573398   
     axis -1.46689e-014 90 90   XYZ
    dof rx rz
    limits (-90.0 90.0)
           (-45.0 45.0)
  end
  begin
     id 22 
     name lfingers
     direction 1 -4.48955e-011 4.59726e-026   
     length 0.462289   
     axis -2.93383e-014 90 90   XYZ
    dof rx
    limits (0.0 90.0)
  end
  begin
     id 23
     name lthumb
     direction 0.707107 -6.34866e-011 0.707107   
     length 0.663757   
     axis -90 45 5.69224e-014   XYZ
    dof rx rz
    limits (-45.0 45.0)
           (-45.0 45.0)
  end
  begin
     id 24 
     name rclavicle
     direction -0.981571 0.157346 0.108443   
     length 3.35257  
     axis 0 0 0   XYZ 
    dof ry rz
    limits (-10.0 20.0)
           (-20.0 0.0)
  end
  begin
     id 25 
     name rhumerus
     direction -1 -4.48967e-011 8.58308e-029  
     length 4.67018   
     axis 180 30 90   XYZ
    dof rx ry rz
    limits (-90.0 60.0)
           (-90.0 90.0)
           (-90.0 90.0)
  end
  begin
     id 26 
     name rradius
     direction -1 -4.48958e-011 4.52548e-027   
     length 2.65534   
     axis 180 30 90   XYZ
    dof rx
    limits (-10.0 170.0)
  end
  begin
     id 27 
     name rwrist
     direction -1 -4.48977e-011 1.14952e-026   
     length 1.32767   
     axis -6.29373e-015 -90 -90   XYZ
    dof ry
    limits (-180.0 0.0)
  end
  begin
     id 28
     name rhand
     direction -1 -4.48924e-011 2.29804e-026   
     length 0.594069   
     axis -1.46689e-014 -90 -90   XYZ
    dof rx rz
    limits (-90.0 90.0)
           (-45.0 45.0)
  end
  begin
     id 29
     name rfingers
     direction -1 -4.48998e-011 4.59888e-026   
     length 0.478954   
     axis -2.93383e-014 -90 -90   XYZ
    dof rx
    limits (0.0 90.0)
  end
  begin
     id 30
     name rthumb
     direction -0.707107 -6.34933e-011 0.707107   
     length 0.687685   
     axis -90 -45 -5.69224e-014   XYZ
    dof rx rz
    limits (-45.0 45.0)
           (-45.0 45.0)
  end
:hierarchy
  begin
    root lhipjoint rhipjoint lowerback
    lhipjoint lfemur
    lfemur ltibia
    ltibia lfoot
    lfoot ltoes
    rhipjoint rfemur
    rfemur rtibia
    rtibia rfoot
    rfoot rtoes
    lowerback upperback
    upperback thorax
    thorax lowerneck lclavicle rclavicle
    lowerneck upperneck
    upperneck head
    lclavicle lhumerus
    lhumerus lradius
    lradius lwrist
    lwrist lhand lthumb
    lhand lfingers
    rclavicle rhumerus
    rhumerus rradius
    rradius rwrist
    rwrist rhand rthumb
    rhand rfingers
  end

#!OML:ASF E:\pregnant2\Project 1\Capture day 1\Session 1\pregnant2.ASF
:FULLY-SPECIFIED
:DEGREES
512
root 7.158 17.3602 22.3023 28.4041 -4.45142 0.848609
lowerback -21.1692 -0.0535884 -0.406688
upperback -16.5678 -0.105142 -0.898274
thorax -6.40674 -0.106439 -0.754194
lowerneck -14.2322 -3.80335 -4.72713
upperneck 29.8632 -5.6571 4.24668
head 12.5137 -2.54311 1.5798
rclavicle 6.75868e-015 -1.37161e-014
rhumerus -52.8498 11.7194 -86.4725
rradius 36.108
rwrist 10.9807
rhand -15.3896 -13.197
rfingers 7.12502
rthumb 10.789 317.1
lclavicle 6.75868e-015 -1.37161e-014
lhumerus -48.1836 -11.6742 85.6747
lradius 33.0681
lwrist -5.85223
lhand -10.8669 23.2862
lfingers 7.12502
lthumb 15.1487 52.7118
rfemur -41.1817 10.3165 12.9197
rtibia 26.8788
rfoot -12.8265 -19.8685
rtoes 1.32196
lfemur -36.9263 -10.9676 -13.8646
ltibia 22.5154
lfoot -4.62581 23.2162
ltoes -17.0875
513
root 7.15432 17.3626 22.3178 28.2822 -4.51089 0.826986
lowerback -21.2575 -0.0558261 -0.379547
upperback -16.617 -0.112703 -0.862245
thorax -6.42108 -0.111457 -0.731917
lowerneck -14.2013 -3.84328 -4.79219
upperneck 29.8823 -5.71348 4.28198
head 12.5218 -2.57216 1.59625
rclavicle -3.08116e-015 1.07344e-014
rhumerus -52.8307 11.9288 -86.5722
rradius 36.2779
rwrist 11.0164
rhand -15.2438 -13.3068
rfingers 7.12502
rthumb 10.9296 316.998
lclavicle -3.08116e-015 1.07344e-014
lhumerus -48.2981 -11.2919 85.4451
lradius 33.0347
lwrist -7.05245
lhand -10.6498 23.0533
lfingers 7.12502
lthumb 15.3578 52.463
rfemur -40.9249 10.4086 12.9547
rtibia 26.7381
rfoot -12.8295 -19.8816
rtoes 1.31432
lfemur -36.6414 -11.0669 -13.8375
ltibia 22.3733
lfoot -4.6475 23.3817
ltoes -16.9849
514
root 7.15082 17.3657 22.3324 28.1701 -4.56368 0.807129
lowerback -21.3456 -0.0625153 -0.353915
upperback -16.6634 -0.125758 -0.823076
thorax -6.43243 -0.118915 -0.706201
lowerneck -14.1945 -3.87546 -4.84669
upperneck 29.9169 -5.7612 4.31711
head 12.5406 -2.59564 1.6119
rclavicle -4.27387e-015 -7.15625e-015
rhumerus -52.8117 12.1394 -86.6771
rradius 36.4337
rwrist 11.0521
rhand -15.1415 -13.4056
rfingers 7.12502
rthumb 11.0282 316.904
lclavicle -4.27387e-015 -7.15625e-015
lhumerus -48.4109 -10.9004 85.2399
lradius 33.0239
lwrist -7.89503
lhand -10.5211 22.9081
lfingers 7.12502
lthumb 15.4818 52.3082
rfemur -40.6793 10.503 12.9834
rtibia 26.5935
rfoot -12.8276 -19.9066
rtoes 1.31009
lfemur -36.3705 -11.2419 -13.7731
ltibia 22.2204
lfoot -4.62494 23.6148
ltoes -16.9006
515
root 7.14745 17.3692 22.346 28.0682 -4.6084 0.789287
lowerback -21.4328 -0.0746409 -0.33137
upperback -16.7081 -0.145338 -0.780042
thorax -6.44238 -0.129136 -0.675547
lowerneck -14.1869 -3.90231 -4.90411
upperneck 29.9601 -5.80356 4.36079
head 12.5628 -2.61592 1.63225
rclavicle -1.68967e-015 -7.95139e-016
rhumerus -52.7901 12.3422 -86.7786
rradius 36.5739
rwrist 11.0872
rhand -15.0837 -13.4845
rfingers 7.12502
rthumb 11.084 316.828
lclavicle -1.68967e-015 -7.95139e-016
lhumerus -48.5274 -10.509 85.0722
lradius 33.0349
lwrist -8.32759
lhand -10.5325 22.8296
lfingers 7.12502
lthumb 15.4708 52.2305
rfemur -40.448 10.6023 13.0039
rtibia 26.4488
rfoot -12.8274 -19.9449
rtoes 1.33539
lfemur -36.1165 -11.4808 -13.677
ltibia 22.0615
lfoot -4.58147 23.9043
ltoes -16.8032
516
root 7.14426 17.3727 22.3586 27.9757 -4.64714 0.77397
lowerback -21.5204 -0.0890153 -0.309636
upperback -16.7508 -0.167682 -0.737268
thorax -6.4498 -0.140674 -0.645141
lowerneck -14.1929 -3.92428 -4.95916
upperneck 30.0207 -5.84325 4.41505
head 12.5952 -2.63302 1.65659
rclavicle -1.33683e-014 1.37161e-014
rhumerus -52.7649 12.5249 -86.8733
rradius 36.6922
rwrist 11.1288
rhand -15.0497 -13.5527
rfingers 7.12502
rthumb 11.1168 316.762
lclavicle -1.33683e-014 1.37161e-014
lhumerus -48.6467 -10.1208 84.9367
lradius 33.0692
lwrist -8.36435
lhand -10.6447 22.8317
lfingers 7.12502
lthumb 15.3627 52.241
rfemur -40.2334 10.7044 13.0166
rtibia 26.3107
rfoot -12.8261 -19.9947
rtoes 1.36257
lfemur -35.8795 -11.7284 -13.5774
ltibia 21.9047
lfoot -4.52888 24.1951
ltoes -16.7137
517
root 7.14126 17.3755 22.3704 27.8909 -4.68208 0.758338
lowerback -21.6098 -0.104035 -0.2855
upperback -16.7897 -0.191185 -0.69481
thorax -6.45196 -0.153019 -0.61661
lowerneck -14.2143 -3.94095 -5.01214
upperneck 30.1026 -5.87997 4.48067
head 12.6398 -2.64667 1.68539
rclavicle -8.99501e-015 -6.36111e-015
rhumerus -52.7321 12.6794 -86.9552
rradius 36.7899
rwrist 11.1764
rhand -15.047 -13.5832
rfingers 7.12502
rthumb 11.1194 316.731
lclavicle -8.99501e-015 -6.36111e-015
lhumerus -48.7659 -9.73971 84.8334
lradius 33.1236
lwrist -8.01721
lhand -10.8592 22.8975
lfingers 7.12502
lthumb 15.1561 52.3225
rfemur -40.0373 10.8073 13.0265
rtibia 26.1855
rfoot -12.8281 -20.0497
rtoes 1.38856
lfemur -35.6588 -11.9233 -13.5002
ltibia 21.7592
lfoot -4.48594 24.4284
ltoes -16.6481
518
root 7.13842 17.3772 22.3813 27.8131 -4.71663 0.745207
lowerback -21.7012 -0.117706 -0.26201
upperback -16.827 -0.21288 -0.655845
thorax -6.45131 -0.164581 -0.591242
lowerneck -14.2494 -3.95555 -5.06343
upperneck 30.2117 -5.91881 4.55734
head 12.6992 -2.65923 1.71789
rclavicle 1.54058e-015 -1.12313e-014
rhumerus -52.6945 12.7988 -87.0246
rradius 36.8613
rwrist 11.2227
rhand -15.0691 -13.566
rfingers 7.12502
rthumb 11.0981 316.747
lclavicle 1.54058e-015 -1.12313e-014
lhumerus -48.8864 -9.36708 84.7557
lradius 33.1909
lwrist -7.35235
lhand -11.1323 23.0244
lfingers 7.12502
lthumb 14.8931 52.469
rfemur -39.861 10.9068 13.0321
rtibia 26.0775
rfoot -12.8323 -20.1044
rtoes 1.40888
lfemur -35.4531 -12.0245 -13.468
ltibia 21.6303
lfoot -4.46838 24.5646
ltoes -16.6136
519
root 7.13576 17.3787 22.3917 27.7431 -4.7516 0.733019
lowerback -21.7959 -0.129117 -0.237765
upperback -16.8641 -0.231822 -0.62041
thorax -6.44877 -0.175026 -0.569724
lowerneck -14.2912 -3.96789 -5.11234
upperneck 30.3436 -5.95989 4.64518
head 12.7701 -2.67078 1.75417
rclavicle -7.03201e-015 9.44227e-015
rhumerus -52.6579 12.8819 -87.0824
rradius 36.9079
rwrist 11.2702
rhand -15.1236 -13.5107
rfingers 7.12502
rthumb 11.0455 316.8
lclavicle -7.03201e-015 9.44227e-015
lhumerus -49.0037 -8.99191 84.6916
lradius 33.2658
lwrist -6.44272
lhand -11.4221 23.2233
lfingers 7.12502
lthumb 14.6138 52.6884
rfemur -39.7048 10.9982 13.0374
rtibia 25.9882
rfoot -12.8411 -20.1522
rtoes 1.41488
lfemur -35.2674 -12.1044 -13.4444
ltibia 21.5215
lfoot -4.46788 24.6801
ltoes -16.5825
520
root 7.13324 17.3801 22.4015 27.6802 -4.78778 0.724719
lowerback -21.8925 -0.139191 -0.217188
upperback -16.9012 -0.248542 -0.58865
thorax -6.44549 -0.184215 -0.549807
lowerneck -14.3426 -3.97799 -5.15471
upperneck 30.4981 -6.00245 4.73828
head 12.8528 -2.68119 1.79135
rclavicle -1.12562e-014 -4.47266e-015
rhumerus -52.6189 12.9265 -87.1245
rradius 36.9309
rwrist 11.3179
rhand -15.1714 -13.4329
rfingers 7.12502
rthumb 10.9995 316.875
lclavicle -1.12562e-014 -4.47266e-015
lhumerus -49.1157 -8.6065 84.6322
lradius 33.3376
lwrist -5.38386
lhand -11.7085 23.4775
lfingers 7.12502
lthumb 14.3379 52.9624
rfemur -39.5654 11.0795 13.0398
rtibia 25.9126
rfoot -12.8557 -20.1915
rtoes 1.4149
lfemur -35.0978 -12.1797 -13.4253
ltibia 21.4249
lfoot -4.4774 24.7903
ltoes -16.5538
